<svg width="354" height="51" viewBox="0 0 354 51" fill="none" xmlns="http://www.w3.org/2000/svg">
<path d="M0.193953 50V3.45454H31.5576V11.5682H10.0349V22.6591H29.944V30.7727H10.0349V41.8864H31.6485V50H0.193953ZM50.6553 50.5682C48.0038 50.5682 45.6022 49.8864 43.4507 48.5227C41.3144 47.1439 39.6174 45.1212 38.3598 42.4545C37.1174 39.7727 36.4962 36.4848 36.4962 32.5909C36.4962 28.5909 37.1401 25.2652 38.428 22.6136C39.7159 19.947 41.428 17.9545 43.5644 16.6364C45.7159 15.303 48.0719 14.6364 50.6325 14.6364C52.5871 14.6364 54.2159 14.9697 55.5189 15.6364C56.8371 16.2879 57.8977 17.1061 58.7007 18.0909C59.5189 19.0606 60.1401 20.0152 60.5644 20.9545H60.8598V3.45454H70.5189V50H60.9735V44.4091H60.5644C60.1098 45.3788 59.4659 46.3409 58.6325 47.2955C57.8144 48.2348 56.7462 49.0152 55.428 49.6364C54.125 50.2576 52.5341 50.5682 50.6553 50.5682ZM53.7235 42.8636C55.2841 42.8636 56.6022 42.4394 57.678 41.5909C58.7689 40.7273 59.6022 39.5227 60.178 37.9773C60.7689 36.4318 61.0644 34.6212 61.0644 32.5455C61.0644 30.4697 60.7765 28.6667 60.2007 27.1364C59.625 25.6061 58.7916 24.4242 57.7007 23.5909C56.6098 22.7576 55.2841 22.3409 53.7235 22.3409C52.1325 22.3409 50.7916 22.7727 49.7007 23.6364C48.6098 24.5 47.7841 25.697 47.2235 27.2273C46.6628 28.7576 46.3825 30.5303 46.3825 32.5455C46.3825 34.5758 46.6628 36.3712 47.2235 37.9318C47.7992 39.4773 48.625 40.6894 49.7007 41.5682C50.7916 42.4318 52.1325 42.8636 53.7235 42.8636ZM108.117 18.5C107.798 17.3939 107.351 16.4167 106.776 15.5682C106.2 14.7045 105.495 13.9773 104.662 13.3864C103.844 12.7803 102.904 12.3182 101.844 12C100.798 11.6818 99.6393 11.5227 98.3666 11.5227C95.9878 11.5227 93.8969 12.1136 92.0939 13.2955C90.306 14.4773 88.912 16.197 87.912 18.4545C86.912 20.697 86.412 23.4394 86.412 26.6818C86.412 29.9242 86.9045 32.6818 87.8893 34.9545C88.8742 37.2273 90.2681 38.9621 92.0711 40.1591C93.8742 41.3409 96.003 41.9318 98.4575 41.9318C100.685 41.9318 102.586 41.5379 104.162 40.75C105.753 39.947 106.965 38.8182 107.798 37.3636C108.647 35.9091 109.071 34.1894 109.071 32.2045L111.071 32.5H99.0711V25.0909H118.548V30.9545C118.548 35.0455 117.685 38.5606 115.957 41.5C114.23 44.4242 111.851 46.6818 108.821 48.2727C105.791 49.8485 102.321 50.6364 98.412 50.6364C94.0484 50.6364 90.2151 49.6742 86.912 47.75C83.609 45.8106 81.0333 43.0606 79.1848 39.5C77.3514 35.9242 76.4348 31.6818 76.4348 26.7727C76.4348 23 76.9802 19.6364 78.0711 16.6818C79.1772 13.7121 80.7226 11.197 82.7075 9.13636C84.6923 7.07576 87.003 5.50757 89.6393 4.43182C92.2757 3.35606 95.1317 2.81818 98.2075 2.81818C100.844 2.81818 103.298 3.20454 105.571 3.97727C107.844 4.73485 109.859 5.81061 111.617 7.20454C113.389 8.59848 114.836 10.2576 115.957 12.1818C117.079 14.0909 117.798 16.197 118.117 18.5H108.117ZM140.26 50.6818C136.669 50.6818 133.578 49.9545 130.987 48.5C128.411 47.0303 126.426 44.9545 125.032 42.2727C123.639 39.5758 122.942 36.3864 122.942 32.7045C122.942 29.1136 123.639 25.9621 125.032 23.25C126.426 20.5379 128.389 18.4242 130.919 16.9091C133.464 15.3939 136.449 14.6364 139.873 14.6364C142.176 14.6364 144.32 15.0076 146.305 15.75C148.305 16.4773 150.048 17.5758 151.532 19.0455C153.032 20.5152 154.199 22.3636 155.032 24.5909C155.866 26.803 156.282 29.3939 156.282 32.3636V35.0227H126.805V29.0227H147.169C147.169 27.6288 146.866 26.3939 146.26 25.3182C145.654 24.2424 144.813 23.4015 143.737 22.7955C142.676 22.1742 141.442 21.8636 140.032 21.8636C138.563 21.8636 137.26 22.2045 136.123 22.8864C135.002 23.553 134.123 24.4545 133.487 25.5909C132.851 26.7121 132.525 27.9621 132.51 29.3409V35.0455C132.51 36.7727 132.828 38.2652 133.464 39.5227C134.116 40.7803 135.032 41.75 136.214 42.4318C137.396 43.1136 138.798 43.4545 140.419 43.4545C141.495 43.4545 142.479 43.303 143.373 43C144.267 42.697 145.032 42.2424 145.669 41.6364C146.305 41.0303 146.79 40.2879 147.123 39.4091L156.078 40C155.623 42.1515 154.692 44.0303 153.282 45.6364C151.889 47.2273 150.085 48.4697 147.873 49.3636C145.676 50.2424 143.139 50.6818 140.26 50.6818ZM170.874 29.8182V50H161.193V15.0909H170.42V21.25H170.829C171.602 19.2197 172.897 17.6136 174.715 16.4318C176.534 15.2348 178.738 14.6364 181.329 14.6364C183.753 14.6364 185.867 15.1667 187.67 16.2273C189.473 17.2879 190.874 18.803 191.874 20.7727C192.874 22.7273 193.374 25.0606 193.374 27.7727V50H183.693V29.5C183.708 27.3636 183.162 25.697 182.056 24.5C180.95 23.2879 179.427 22.6818 177.488 22.6818C176.185 22.6818 175.034 22.9621 174.034 23.5227C173.049 24.0833 172.276 24.9015 171.715 25.9773C171.17 27.0379 170.89 28.3182 170.874 29.8182ZM215.37 50.6818C211.84 50.6818 208.787 49.9318 206.211 48.4318C203.65 46.9167 201.673 44.8106 200.279 42.1136C198.885 39.4015 198.188 36.2576 198.188 32.6818C198.188 29.0758 198.885 25.9242 200.279 23.2273C201.673 20.5152 203.65 18.4091 206.211 16.9091C208.787 15.3939 211.84 14.6364 215.37 14.6364C218.9 14.6364 221.946 15.3939 224.506 16.9091C227.082 18.4091 229.067 20.5152 230.461 23.2273C231.855 25.9242 232.552 29.0758 232.552 32.6818C232.552 36.2576 231.855 39.4015 230.461 42.1136C229.067 44.8106 227.082 46.9167 224.506 48.4318C221.946 49.9318 218.9 50.6818 215.37 50.6818ZM215.415 43.1818C217.021 43.1818 218.362 42.7273 219.438 41.8182C220.514 40.8939 221.324 39.6364 221.87 38.0455C222.43 36.4545 222.711 34.6439 222.711 32.6136C222.711 30.5833 222.43 28.7727 221.87 27.1818C221.324 25.5909 220.514 24.3333 219.438 23.4091C218.362 22.4848 217.021 22.0227 215.415 22.0227C213.794 22.0227 212.43 22.4848 211.324 23.4091C210.234 24.3333 209.408 25.5909 208.847 27.1818C208.302 28.7727 208.029 30.5833 208.029 32.6136C208.029 34.6439 208.302 36.4545 208.847 38.0455C209.408 39.6364 210.234 40.8939 211.324 41.8182C212.43 42.7273 213.794 43.1818 215.415 43.1818ZM268.86 15.0909L256.655 50H245.746L233.541 15.0909H243.769L251.019 40.0682H251.382L258.61 15.0909H268.86ZM287.19 50.6818C283.599 50.6818 280.508 49.9545 277.918 48.5C275.342 47.0303 273.357 44.9545 271.963 42.2727C270.569 39.5758 269.872 36.3864 269.872 32.7045C269.872 29.1136 270.569 25.9621 271.963 23.25C273.357 20.5379 275.319 18.4242 277.849 16.9091C280.395 15.3939 283.38 14.6364 286.804 14.6364C289.107 14.6364 291.251 15.0076 293.236 15.75C295.236 16.4773 296.978 17.5758 298.463 19.0455C299.963 20.5152 301.13 22.3636 301.963 24.5909C302.796 26.803 303.213 29.3939 303.213 32.3636V35.0227H273.736V29.0227H294.099C294.099 27.6288 293.796 26.3939 293.19 25.3182C292.584 24.2424 291.743 23.4015 290.668 22.7955C289.607 22.1742 288.372 21.8636 286.963 21.8636C285.493 21.8636 284.19 22.2045 283.054 22.8864C281.933 23.553 281.054 24.4545 280.418 25.5909C279.781 26.7121 279.455 27.9621 279.44 29.3409V35.0455C279.44 36.7727 279.758 38.2652 280.395 39.5227C281.046 40.7803 281.963 41.75 283.145 42.4318C284.327 43.1136 285.728 43.4545 287.349 43.4545C288.425 43.4545 289.41 43.303 290.304 43C291.198 42.697 291.963 42.2424 292.599 41.6364C293.236 41.0303 293.721 40.2879 294.054 39.4091L303.008 40C302.554 42.1515 301.622 44.0303 300.213 45.6364C298.819 47.2273 297.016 48.4697 294.804 49.3636C292.607 50.2424 290.069 50.6818 287.19 50.6818ZM307.941 50V44.2273L325.032 23.0682V22.8182H308.532V15.0909H336.691V21.3864L320.646 42.0227V42.2727H337.282V50H307.941ZM343.278 50V15.0909H352.959V50H343.278ZM348.141 10.5909C346.702 10.5909 345.467 10.1136 344.437 9.15909C343.422 8.18939 342.914 7.0303 342.914 5.68182C342.914 4.34848 343.422 3.20454 344.437 2.25C345.467 1.2803 346.702 0.795452 348.141 0.795452C349.581 0.795452 350.808 1.2803 351.823 2.25C352.853 3.20454 353.369 4.34848 353.369 5.68182C353.369 7.0303 352.853 8.18939 351.823 9.15909C350.808 10.1136 349.581 10.5909 348.141 10.5909Z" fill="#02073E"/>
</svg>
